<?xml version='1.0' encoding='iso-8859-1'?>
<!-- Uploaded to: SVG Repo, www.svgrepo.com, Generator: SVG Repo Mixer Tools -->
<svg fill="#000000" height="800px" width="800px" version="1.1" xmlns="http://www.w3.org/2000/svg" viewBox="0 0 321.473 321.473" xmlns:xlink="http://www.w3.org/1999/xlink" enable-background="new 0 0 321.473 321.473">
  <path d="m321.473,78.291l-4.34-73.786-73.786-4.34-40.097,44.636-139.807-39.863-63.443,63.443 136.459,50.772-79.997,89.052-33.627-6.548-21.064,21.063 67.567,30.503 30.504,67.568 21.063-21.065-6.839-35.121 88.263-79.287 50.598,135.989 63.443-63.443-39.722-139.307 44.825-40.266zm-285.305-17.793l33.102-33.102 119.108,33.961-37.551,41.802-114.659-42.661zm68.753,157.144l-25.576-4.981 172.443-191.964 46.423,2.731 2.73,46.422-191.331,171.873-4.689-24.081zm188.99,34.396l-33.101,33.102-42.487-114.189 41.769-37.521 33.819,118.608z"/>
</svg>